# xmcd
#
# Track frame offsets: 
#        150
#        24097
#        41597
#        61538
#        82251
#        106808
#        124404
#        143184
#        166407
#        186361
#        206126
#        227165
#        244654
#        261901
#        281870
#        297258
#        314389
#
# Disc length: 4423 seconds
#
# Revision: 0
# Processed by: cddbd v1.5PL3 Copyright (c) Steve Scherf et al.
# Submitted via: ExactAudioCopy v0.95a3
#
DISCID=fd114511
DTITLE=Various Artist - RAVING NIGHTMARE
DYEAR=2002
DGENRE=GABBER
TTITLE0=Impulse Factory feat. MC Violence - Raving Nightmare (Psycho T
TTITLE0=rauma)
TTITLE1=E-Noid - Liquid Super D
TTITLE2=The Viper - Bullet Proof
TTITLE3=DJ Nosferatu - The Undead
TTITLE4=Parian vs The Mental Defective - Get Ready For Us
TTITLE5=DJ Promo - Messin' With Yo Mind
TTITLE6=Delta 9 - Stomp Your Feet
TTITLE7=DJ Dione - Rock The Place
TTITLE8=Headbanger and Delirium - Danger
TTITLE9=Weapon X - In Distrezz Mode
TTITLE10=Knightvision and D'Spyre - Apocalypse
TTITLE11=DJ Paul and Masochist - We Like Beer
TTITLE12=The Dark Twins and Exagon - Keep The Faith
TTITLE13=DJ Kristof and Bad Boy - Anti-Social
TTITLE14=Hardcore Factory - Nobody Harder
TTITLE15=DJ Delirium - Not A Game (Headbanger Remix)
TTITLE16=DJ Exagon - 2 Hard 4 You
EXTD=
EXTT0=
EXTT1=
EXTT2=
EXTT3=
EXTT4=
EXTT5=
EXTT6=
EXTT7=
EXTT8=
EXTT9=
EXTT10=
EXTT11=
EXTT12=
EXTT13=
EXTT14=
EXTT15=
EXTT16=
PLAYORDER=
